<svg width="1111" height="634" viewBox="0 0 1111 634" fill="none" xmlns="http://www.w3.org/2000/svg">
    <path d="M0 20C0 -17.5554 30.4446 -48 68 -48H759C796.555 -48 827 -17.5554 827 20V440.014C827 477.569 796.555 508.014 759 508.014H249.472C236.179 508.014 223.178 511.91 212.075 519.22L51.885 624.699C51.8818 624.701 51.8787 624.703 51.8759 624.706C49.7278 626.753 46.3218 624.37 47.5081 621.65L96.6771 508.943C96.8685 508.504 96.5471 508.014 96.0686 508.014H38.414C17.1986 508.014 0 490.815 0 469.6V20Z" fill="white" fill-opacity="0.07"/>
    <path d="M1111 -165C1111 -202.555 1080.56 -233 1043 -233H356C318.445 -233 288 -202.555 288 -165V263.982C288 301.537 318.445 331.982 356 331.982H862.28C875.795 331.982 889.004 336.009 900.22 343.55L1059.37 450.549C1059.37 450.551 1059.37 450.554 1059.38 450.556C1061.5 452.624 1064.93 450.272 1063.76 447.545L1014.78 332.912C1014.6 332.471 1014.92 331.982 1015.4 331.982H1072.58C1093.8 331.982 1111 314.781 1111 293.562V-165Z" fill="white" fill-opacity="0.07"/>
</svg>
